<?xml version="1.0" encoding="UTF-8" standalone="no"?>
<!-- Created with Inkscape (http://www.inkscape.org/) -->

<svg
   width="1024"
   height="900"
   viewBox="0 0 341.33333 300"
   version="1.1"
   id="svg1"
   inkscape:version="1.4.4 (dcaf3e7d9e, 2026-05-05)"
   sodipodi:docname="mascot.svg"
   xml:space="preserve"
   inkscape:export-filename="donation.png"
   inkscape:export-xdpi="120"
   inkscape:export-ydpi="120"
   xmlns:inkscape="http://www.inkscape.org/namespaces/inkscape"
   xmlns:sodipodi="http://sodipodi.sourceforge.net/DTD/sodipodi-0.dtd"
   xmlns="http://www.w3.org/2000/svg"
   xmlns:svg="http://www.w3.org/2000/svg"><sodipodi:namedview
     id="namedview1"
     pagecolor="#ffffff"
     bordercolor="#000000"
     borderopacity="0.25"
     inkscape:showpageshadow="2"
     inkscape:pageopacity="0.0"
     inkscape:pagecheckerboard="true"
     inkscape:deskcolor="#d1d1d1"
     inkscape:document-units="px"
     showgrid="true"
     inkscape:zoom="11.426846"
     inkscape:cx="715.24551"
     inkscape:cy="280.21732"
     inkscape:window-width="1920"
     inkscape:window-height="1011"
     inkscape:window-x="0"
     inkscape:window-y="0"
     inkscape:window-maximized="1"
     inkscape:current-layer="layer1"><inkscape:grid
       id="grid1"
       units="px"
       originx="0"
       originy="0"
       spacingx="0.33333333"
       spacingy="0.33333333"
       empcolor="#0099e5"
       empopacity="0.30196078"
       color="#0099e5"
       opacity="0.14902"
       empspacing="8"
       enabled="true"
       visible="true" /></sodipodi:namedview><defs
     id="defs1"><inkscape:path-effect
       effect="transform_2pts"
       start="-504.00002,236.46535"
       end="-492.32342,227.80198"
       id="path-effect5"
       is_visible="true"
       lpeversion="1"
       first_knot="1"
       last_knot="2"
       helper_size="3"
       stretch="1"
       offset="0"
       elastic="false"
       from_original_width="true"
       flip_vertical="false"
       flip_horizontal="false"
       lock_length="false"
       lock_angle="false" /><inkscape:path-effect
       effect="pts2ellipse"
       id="path-effect4"
       is_visible="true"
       lpeversion="1"
       method="auto"
       gen_arc="false"
       arc_other="false"
       slice_arc="false"
       gen_isometric_frame="false"
       draw_axes="false"
       gen_perspective_frame="false"
       draw_perspective_axes="false"
       rot_axes="0"
       draw_ori_path="false" /><inkscape:path-effect
       effect="slice"
       start_point="-468.23712,224.00001"
       end_point="-492.20906,251.38333"
       center_point="-480.22309,237.69167"
       id="path-effect3"
       is_visible="true"
       lpeversion="1.2"
       lpesatellites=""
       allow_transforms="true" /><inkscape:path-effect
       effect="ellipse_5pts"
       id="path-effect2"
       is_visible="true"
       lpeversion="1" /><inkscape:path-effect
       effect="bend_path"
       id="path-effect1"
       is_visible="true"
       lpeversion="1"
       bendpath="m -506.66668,248 h 58.66667"
       prop_scale="2.4520675"
       scale_y_rel="false"
       vertical="false"
       hide_knot="false" /><style
       id="style1">.cls-1{fill:#5865f2;}</style><style
       id="style1-2">.cls-1{fill:#fff;}</style></defs><g
     inkscape:label="Layer 1"
     inkscape:groupmode="layer"
     id="layer1"><text
       xml:space="preserve"
       style="font-style:normal;font-variant:normal;font-weight:normal;font-stretch:normal;font-size:22.8585px;font-family:'MS PGothic';-inkscape-font-specification:'MS PGothic';text-align:start;writing-mode:lr-tb;direction:ltr;text-anchor:start;fill:#ffffff;fill-opacity:1;stroke:#ffffff;stroke-width:1.07149;stroke-linecap:round;stroke-dasharray:none;stroke-opacity:1"
       x="-43.167042"
       y="-43.188313"
       id="text27"><tspan
         sodipodi:role="line"
         id="tspan27"
         style="font-style:normal;font-variant:normal;font-weight:normal;font-stretch:normal;font-size:22.8585px;font-family:'MS PGothic';-inkscape-font-specification:'MS PGothic';fill:#ffffff;fill-opacity:1;stroke:#ffffff;stroke-width:1.07149;stroke-dasharray:none;stroke-opacity:1"
         x="-43.167042"
         y="-43.188313" /></text><text
       xml:space="preserve"
       style="font-style:normal;font-variant:normal;font-weight:normal;font-stretch:normal;font-size:16px;font-family:'Patrick Hand';-inkscape-font-specification:'Patrick Hand';writing-mode:lr-tb;direction:ltr;white-space:pre;inline-size:316.369;display:inline;fill:#006aff;fill-opacity:1;stroke:#006aff;stroke-width:0.333333;stroke-linecap:round;stroke-dasharray:none;stroke-opacity:1"
       x="7.4906559"
       y="27.630363"
       id="text1275-3-0"
       transform="matrix(1.6072416,0,0,1.6072416,-462.49724,64.109651)" /><path
       id="path10"
       style="fill:#006aff;fill-opacity:1;stroke:none;stroke-width:42.6474;stroke-linecap:round;stroke-linejoin:round;stroke-dasharray:none;stroke-opacity:1;paint-order:normal"
       d="M 174.23372 22.401042 A 77.540726 77.540726 0 0 0 96.692708 99.942057 A 77.540726 77.540726 0 0 0 174.23372 177.48242 A 77.540726 77.540726 0 0 0 251.77409 99.942057 A 77.540726 77.540726 0 0 0 251.7181 97.003906 A 26.363855 26.363855 0 0 1 225.41016 121.65299 A 26.363855 26.363855 0 0 1 199.04622 95.289062 A 26.363855 26.363855 0 0 1 225.41016 68.92513 A 26.363855 26.363855 0 0 1 250.97786 88.858724 A 77.540726 77.540726 0 0 0 174.23372 22.401042 z M 152.52213 72.027343 A 26.363855 26.363855 0 0 1 178.88607 98.390625 A 26.363855 26.363855 0 0 1 152.52213 124.75456 A 26.363855 26.363855 0 0 1 126.1582 98.390625 A 26.363855 26.363855 0 0 1 152.52213 72.027343 z M 193.40625 132.41211 A 3.1019502 3.1019502 0 0 1 193.44271 132.41211 L 193.70833 132.41406 A 3.1019502 3.1019502 0 0 1 193.74414 132.41406 L 194.01172 132.41862 A 3.1019502 3.1019502 0 0 1 194.04687 132.42057 L 194.3125 132.42838 A 3.1019502 3.1019502 0 0 1 194.34766 132.42838 L 194.61328 132.4401 A 3.1019502 3.1019502 0 0 1 194.63086 132.4401 C 194.93285 132.4538 195.23598 132.47274 195.53711 132.49674 C 195.83905 132.52074 196.14079 132.55043 196.44141 132.58463 C 196.74317 132.61892 197.04375 132.65752 197.34375 132.70182 C 197.64523 132.74636 197.94486 132.79586 198.24414 132.85026 C 198.54522 132.905 198.84606 132.96555 199.14453 133.02995 C 199.44511 133.09484 199.74341 133.16453 200.04101 133.23893 C 200.34099 133.31393 200.6389 133.39291 200.93555 133.47721 C 201.23486 133.56224 201.53249 133.65264 201.82812 133.74674 C 202.12669 133.84174 202.42416 133.93984 202.71875 134.04362 C 203.11651 134.18374 203.51025 134.33181 203.90039 134.48698 C 204.29667 134.64459 204.68806 134.80911 205.07617 134.98112 C 205.57064 135.20026 206.05814 135.43207 206.53906 135.67253 C 207.13084 135.96842 207.71396 136.27962 208.28516 136.60417 C 208.8733 136.93834 209.44888 137.28648 210.01562 137.64713 A 3.10164 3.10164 0 0 1 210.96875 141.92838 A 3.10164 3.10164 0 0 1 206.68555 142.87956 C 206.20215 142.57194 205.71482 142.27749 205.2207 141.99674 C 204.74085 141.7241 204.2551 141.46609 203.76562 141.22135 C 203.36785 141.02247 202.9662 140.83191 202.5625 140.65299 C 202.24564 140.51256 201.92767 140.37802 201.60742 140.25065 C 201.29214 140.12525 200.97454 140.00731 200.65625 139.89518 C 200.42051 139.81214 200.1845 139.7324 199.94726 139.6569 C 199.71234 139.58215 199.47649 139.51111 199.24023 139.44401 C 199.00608 139.37749 198.77244 139.31531 198.53711 139.25651 C 198.30366 139.19815 198.06846 139.14305 197.83398 139.09245 C 197.60115 139.04217 197.36846 138.99628 197.13476 138.95378 C 196.90245 138.91155 196.67053 138.87294 196.4375 138.83854 C 196.20562 138.80424 195.97268 138.77314 195.74023 138.74674 C 195.50868 138.72044 195.27689 138.69884 195.04492 138.68034 C 194.81357 138.66194 194.58123 138.64787 194.34961 138.63737 L 194.11914 138.62695 L 193.88672 138.62109 L 193.65625 138.61719 L 193.42383 138.61523 L 193.19336 138.61719 L 192.96289 138.62109 L 192.71289 138.62695 C 192.48722 138.63485 192.26257 138.64671 192.03711 138.66211 C 191.80527 138.67791 191.57327 138.69896 191.3418 138.72266 C 191.10952 138.74636 190.87629 138.77309 190.64453 138.80469 C 190.41171 138.83641 190.17941 138.87251 189.94726 138.91211 C 189.71379 138.95187 189.4807 138.99537 189.24805 139.04297 C 189.01383 139.09088 188.78011 139.14352 188.54687 139.19922 C 188.31183 139.25531 188.07766 139.31511 187.84375 139.37891 C 187.60781 139.44325 187.37332 139.51003 187.13867 139.58203 C 186.90176 139.65472 186.66514 139.7322 186.42969 139.8125 C 186.19177 139.89361 185.95506 139.97781 185.71875 140.06641 C 185.39949 140.18613 185.08169 140.31242 184.76562 140.44531 C 184.36321 140.61451 183.96318 140.79501 183.56641 140.98437 C 183.07851 141.21724 182.5939 141.46547 182.11523 141.72656 C 181.12132 142.26871 180.15012 142.86813 179.19922 143.51562 L 178.68555 143.87109 L 178.18945 144.22461 L 177.69336 144.5918 L 177.19531 144.9707 L 176.69726 145.36133 L 176.18164 145.7793 A 3.10164 3.10164 0 0 1 171.82031 145.3125 A 3.10164 3.10164 0 0 1 172.28516 140.95117 L 172.81836 140.52148 A 3.1019502 3.1019502 0 0 1 172.85351 140.49414 L 173.38672 140.07617 A 3.1019502 3.1019502 0 0 1 173.41992 140.04883 L 173.95312 139.64258 A 3.1019502 3.1019502 0 0 1 173.99023 139.61523 L 174.52344 139.22266 A 3.1019502 3.1019502 0 0 1 174.56055 139.19531 L 175.09375 138.8125 A 3.1019502 3.1019502 0 0 1 175.13281 138.78581 L 175.66406 138.41667 A 3.1019502 3.1019502 0 0 1 175.68555 138.40299 C 176.79645 137.64558 177.94772 136.93277 179.14453 136.27995 C 179.71726 135.96755 180.30157 135.67037 180.89453 135.38737 C 181.37676 135.15722 181.86589 134.93747 182.36133 134.72917 C 182.75046 134.56555 183.14203 134.40735 183.53906 134.25846 C 183.83294 134.14826 184.12971 134.04366 184.42773 133.94206 C 184.72268 133.84151 185.01954 133.74469 185.31836 133.65299 C 185.61434 133.56218 185.91139 133.47493 186.21094 133.39323 C 186.5079 133.31224 186.80723 133.23631 187.10742 133.16471 C 187.40532 133.09362 187.7051 133.02699 188.00586 132.96549 C 188.30461 132.90438 188.60502 132.84883 188.90625 132.79753 C 189.20578 132.74646 189.50505 132.69995 189.80664 132.65885 C 190.10686 132.61793 190.4091 132.58233 190.71094 132.55143 C 191.01174 132.52073 191.31326 132.49391 191.61523 132.47331 C 191.91651 132.45281 192.21755 132.43868 192.51953 132.42838 A 3.1019502 3.1019502 0 0 1 192.53711 132.42838 L 192.80273 132.41992 A 3.1019502 3.1019502 0 0 1 192.83789 132.41797 L 193.10547 132.41406 A 3.1019502 3.1019502 0 0 1 193.14062 132.41406 L 193.40625 132.41211 z " /><g
       id="path8"
       style="opacity:1"><path
         style="baseline-shift:baseline;display:inline;overflow:visible;vector-effect:none;fill:#ffffff;stroke-linecap:round;stroke-linejoin:round;enable-background:accumulate;stop-color:#000000;stop-opacity:1"
         d="m 223.85953,95.289307 c 2.0173,-1.297944 4.08045,-1.202651 6.20326,0.705273"
         id="path4" /><path
         id="path9"
         style="baseline-shift:baseline;display:inline;overflow:visible;vector-effect:none;fill:#006aff;stroke-linecap:round;stroke-linejoin:round;enable-background:accumulate;stop-color:#000000;stop-opacity:1"
         d="m 226.57226,73.108073 c -5.56615,0.0376 -10.75862,2.002973 -14.25,4.249348 -9.90398,6.372261 -12.76692,19.566804 -6.39453,29.470699 4.16019,6.43483 11.45307,10.14278 19.10352,9.7129 7.59069,1.89335 15.6087,-0.52195 20.89062,-6.29297 7.87213,-8.75892 7.15335,-22.241027 -1.60546,-30.113285 -3.48453,-3.1318 -8.88738,-6.295029 -15.33985,-6.919922 -0.80656,-0.07811 -1.60913,-0.112142 -2.4043,-0.10677 z m -8.14062,3.477864 c 1.27567,-10e-7 2.55058,0.248919 3.54883,0.748047 3.06457,1.531691 4.30717,5.257737 2.77539,8.322266 -0.9971,1.700227 -2.74287,2.825407 -4.70313,3.03125 -1.98737,1.911124 -4.99763,2.281141 -7.38867,0.908203 -2.85137,-1.90036 -3.62183,-5.752659 -1.7207,-8.603516 0.86985,-1.304799 1.94295,-2.659944 3.93945,-3.658203 0.99825,-0.499129 2.27316,-0.748045 3.54883,-0.748047 z m 23.45703,10.755859 c 0.77541,0 1.91314,0.241268 2.77344,1.101563 0.8603,0.860296 1.10351,1.999983 1.10351,2.775391 10e-6,0.775408 -0.15889,1.365352 -0.35351,1.949218 -0.54117,1.625859 -2.29823,2.504824 -3.92383,1.962891 -0.43153,-0.451386 -0.76781,-0.964178 -1.02985,-1.551159 -0.85381,-0.27145 -2.01534,-0.874843 -2.48187,-1.962513 -0.54083,-1.624447 0.33689,-3.37987 1.96094,-3.921875 0.58387,-0.19462 1.17577,-0.353516 1.95117,-0.353516 z m -7.48177,13.541664 c 0.41469,0.0179 0.60894,-0.0875 1.10396,0.21003 0.54019,-0.33222 0.92398,-0.29625 1.46961,-0.17357 0.76077,0.39455 1.05729,1.33136 0.66211,2.0918 -0.17797,0.34264 -0.37415,0.65935 -0.68946,0.96289 -0.3153,0.30354 -0.83602,0.61914 -1.46289,0.61914 -0.62686,0 -1.14758,-0.31561 -1.46289,-0.61914 -0.31531,-0.30353 -0.50952,-0.62025 -0.6875,-0.96289 -0.39547,-0.75992 -0.0999,-1.69655 0.66016,-2.0918 0.13343,-0.03 0.27025,-0.0423 0.4069,-0.0365 z m -18.59831,10.97006 c 1.96549,1.47184 4.17042,2.59313 6.51758,3.31445 0.24412,-1.59962 -5.43718,-2.34343 -6.51758,-3.31445 z m 19.58789,1.36914 c -1.51734,0.97627 -6.97744,-1.0636 -7.55859,2.41992 2.64877,-0.32653 5.2127,-1.14738 7.55859,-2.41992 z"
         sodipodi:nodetypes="sscccsssscccccssssscccccsccccssscccccccccc" /></g><g
       id="path8-3"
       style="opacity:1"><path
         style="baseline-shift:baseline;display:inline;overflow:visible;vector-effect:none;fill:#ffffff;stroke-linecap:round;stroke-linejoin:round;enable-background:accumulate;stop-color:#000000;stop-opacity:1"
         d="m 157.17451,98.390929 c -2.01731,-1.297944 -4.08046,-1.20265 -6.20326,0.70529"
         id="path17" /><path
         id="path18"
         style="baseline-shift:baseline;display:inline;overflow:visible;vector-effect:none;fill:#006aff;stroke-linecap:round;stroke-linejoin:round;enable-background:accumulate;stop-color:#000000;stop-opacity:1"
         d="m 154.46094,76.209635 c -0.79522,-0.0054 -1.59774,0.02866 -2.4043,0.106771 -6.45249,0.62491 -11.85532,3.788085 -15.33984,6.919922 -8.75881,7.872254 -9.4776,21.354362 -1.60547,30.113282 5.2823,5.77173 13.30127,8.18709 20.89258,6.29297 7.65044,0.42988 14.94332,-3.27807 19.10351,-9.71289 6.37239,-9.9039 3.50945,-23.098445 -6.39453,-29.470706 -3.49137,-2.24636 -8.68541,-4.211754 -14.25195,-4.249349 z m -8.91797,3.477865 c 1.27569,4e-6 2.55252,0.248899 3.55078,0.748046 3.06384,1.532401 4.3055,5.258257 2.77344,8.322266 -0.9971,1.700227 -2.74287,2.825407 -4.70313,3.03125 -1.98737,1.911124 -4.99763,2.281141 -7.38867,0.908203 -2.85069,-1.900988 -3.62026,-5.753166 -1.71875,-8.603515 0.86985,-1.304766 1.941,-2.659945 3.9375,-3.658204 0.99825,-0.49913 2.27314,-0.74805 3.54883,-0.748046 z m 24.22461,12.50651 c 0.27055,0.01626 0.5378,0.06792 0.79492,0.153646 0.43153,0.451386 1.00554,0.836876 1.10714,1.453028 1.01651,0.492779 1.93747,0.971783 2.40458,2.058691 0.5421,1.625038 -0.33586,3.381841 -1.96094,3.923828 -0.58388,0.194638 -1.17573,0.351567 -1.95117,0.351567 -0.77544,-1e-5 -1.91317,-0.241258 -2.77344,-1.101567 -0.86026,-0.860308 -1.10351,-2.000007 -1.10351,-2.775391 -1e-5,-0.775383 0.15891,-1.365362 0.35351,-1.949219 0.44422,-1.331745 1.72757,-2.199061 3.12891,-2.114583 z m -8.00977,7.750651 c 0.27168,-0.01216 0.54178,0.04734 0.7832,0.172529 0.34263,0.17797 0.65937,0.37219 0.9629,0.6875 0.30353,0.31531 0.62109,0.83603 0.62109,1.46289 0,0.62686 -0.31756,1.14758 -0.62109,1.46289 -0.30353,0.31531 -0.62027,0.51148 -0.9629,0.68945 -0.75996,0.39385 -1.69532,0.0975 -2.08984,-0.66211 -0.26142,-0.60912 -0.23057,-1.22424 0.12693,-1.74109 -0.0912,-0.39394 -0.17982,-0.79671 -0.12693,-1.23938 0.25575,-0.49084 0.75371,-0.808171 1.30664,-0.832679 z m 3.4668,15.010419 c -1.08057,0.9712 -4.58619,0.45678 -6.51758,3.31445 2.34716,-0.72132 4.55209,-1.84261 6.51758,-3.31445 z m -19.58789,1.36914 c 2.34589,1.27254 4.90982,2.09339 7.55859,2.41992 -1.87419,-3.329 -6.04126,-1.44367 -7.55859,-2.41992 z"
         sodipodi:nodetypes="ssscccssscccccsscccccssscccssscccccccccccc" /></g><path
       style="fill:#ffffff;stroke:#99c1f1;stroke-width:12.4065;stroke-linecap:round;stroke-linejoin:round;stroke-dasharray:none;stroke-opacity:1;paint-order:normal"
       d="m 143.21718,117.00071 c -1.55081,0 -3.10162,0 -3.10162,-1.55082"
       id="path5-1-2"
       sodipodi:nodetypes="cc" /><path
       style="fill:#ffffff;stroke:#99c1f1;stroke-width:12.4065;stroke-linecap:round;stroke-linejoin:round;stroke-dasharray:none;stroke-opacity:1;paint-order:normal"
       d="m 240.91849,112.37533 c -1.00548,-0.72098 -1.96603,0.0752 -3.12305,1.50721"
       id="path5-1-2-9"
       sodipodi:nodetypes="cc" /><g
       id="path6-3"
       style="opacity:1" /><path
       style="fill:#ffffff;stroke:#99c1f1;stroke-width:6.20328;stroke-linecap:round;stroke-linejoin:round;stroke-dasharray:none;stroke-opacity:1;paint-order:normal"
       d="m 166.4794,115.64374 c 0.93205,1.89628 -0.7114,1.31832 -1.55081,1.55082"
       id="path6-3-5"
       sodipodi:nodetypes="cc" /><path
       style="fill:#ffffff;stroke:#99c1f1;stroke-width:6.20328;stroke-linecap:round;stroke-linejoin:round;stroke-dasharray:none;stroke-opacity:1;paint-order:normal"
       d="m 216.91977,115.44989 c -1.64657,0 -1.52571,-1.78332 -2.36512,-1.55082"
       id="path6-3-5-2"
       sodipodi:nodetypes="cc" /><g
       id="path7-6"
       style="opacity:1" /><g
       id="path12"
       style="opacity:1"><path
         id="path2"
         style="baseline-shift:baseline;display:inline;overflow:visible;vector-effect:none;fill:#006aff;stroke-linecap:round;stroke-linejoin:round;stroke-dasharray:1865.64, 77.7342;enable-background:accumulate;stop-color:#000000;stop-opacity:1"
         d="M 142.43164 168.15104 A 38.8671 38.8671 0 0 0 110.14583 189.28711 A 19.385201 19.385201 0 0 1 126.90365 209.57226 L 126.87435 210.10872 L 126.85156 210.57552 L 126.83203 211.02864 L 126.81836 211.47005 L 126.80664 211.89583 L 126.80013 212.30794 L 126.79622 212.70638 L 126.79818 213.08919 L 126.80404 213.45833 L 126.8125 213.80989 L 126.82617 214.14583 L 126.8418 214.46419 L 126.86133 214.76693 L 126.88281 215.05208 L 126.9082 215.31771 L 126.93555 215.56641 L 126.96289 215.79622 L 126.99414 216.01107 C 127.02454 216.21151 127.05524 216.38448 127.08594 216.5306 C 127.08994 216.5478 127.0917 216.56172 127.0957 216.57812 L 127.10742 216.58203 L 127.1875 216.61719 L 127.27344 216.65234 L 127.36914 216.68945 L 127.4707 216.72851 L 127.57812 216.76953 L 127.69531 216.81055 L 127.82031 216.85351 L 127.95117 216.89648 L 128.0918 216.94141 L 128.23828 216.98633 L 128.39453 217.03125 L 128.55859 217.07812 L 128.73047 217.12305 L 128.91211 217.16992 L 129.10156 217.2168 L 129.29883 217.26367 L 129.50391 217.30859 L 129.71875 217.35547 L 130.03125 217.41992 A 19.385201 19.385201 0 0 1 144.54362 230.27083 A 19.385201 19.385201 0 0 1 159.50391 215.86914 L 159.81836 215.80469 L 160.03125 215.75781 L 160.23828 215.71289 L 160.43555 215.66601 L 160.625 215.61914 L 160.80469 215.57226 L 160.97656 215.52734 L 161.14062 215.48047 L 161.29687 215.43555 L 161.44531 215.39062 L 161.58398 215.3457 L 161.7168 215.30273 L 161.83984 215.25976 L 161.95703 215.21875 L 162.06641 215.17773 L 162.16797 215.13867 L 162.26172 215.10156 L 162.34961 215.06641 L 162.42773 215.03125 L 162.43945 215.02734 C 162.44345 215.01084 162.44522 214.99767 162.44922 214.98047 C 162.47782 214.84475 162.50871 214.68067 162.53711 214.49805 L 162.57226 214.24609 L 162.60156 214.01562 L 162.62695 213.76758 L 162.65234 213.50195 L 162.67578 213.2168 L 162.69336 212.91406 L 162.71094 212.5957 L 162.72266 212.25976 L 162.73242 211.9082 L 162.73698 211.53906 L 162.73893 211.15625 L 162.73698 210.75781 L 162.72851 210.3457 L 162.71875 209.91992 L 162.70312 209.47851 L 162.68555 209.02539 L 162.66211 208.55859 L 162.63281 208.02148 A 19.385201 19.385201 0 0 1 178.62305 187.85612 A 38.8671 38.8671 0 0 0 162.14453 172.18164 A 38.8671 38.8671 0 0 0 147.51562 168.17773 A 38.8671 38.8671 0 0 0 142.43164 168.15104 z M 144.99154 241.00716 A 19.385201 19.385201 0 0 1 122.28516 255.4082 L 121.87695 255.32422 A 19.387139 19.387139 0 0 1 121.69336 255.28516 L 121.29102 255.19922 A 19.387139 19.387139 0 0 1 121.10352 255.1582 L 120.70703 255.07031 A 19.387139 19.387139 0 0 1 120.51758 255.02539 L 120.12695 254.93359 A 19.387139 19.387139 0 0 1 119.93359 254.88867 L 119.54883 254.79297 A 19.387139 19.387139 0 0 1 119.35156 254.74414 L 118.97266 254.64648 A 19.387139 19.387139 0 0 1 118.77344 254.59375 L 118.40039 254.49414 A 19.387139 19.387139 0 0 1 118.19922 254.4375 L 117.83008 254.33594 A 19.387139 19.387139 0 0 1 117.625 254.27539 L 117.26367 254.16992 A 19.387139 19.387139 0 0 1 117.05469 254.10937 L 116.69922 254 A 19.387139 19.387139 0 0 1 116.48828 253.93359 L 116.13672 253.82226 A 19.387139 19.387139 0 0 1 115.92383 253.75391 L 115.57617 253.64062 A 19.387139 19.387139 0 0 1 115.36133 253.56836 L 115.01953 253.45117 A 19.387139 19.387139 0 0 1 114.80273 253.375 L 114.4668 253.25586 A 19.387139 19.387139 0 0 1 114.24609 253.17578 L 113.91406 253.05273 A 19.387139 19.387139 0 0 1 113.69141 252.96875 L 113.36719 252.84375 A 19.387139 19.387139 0 0 1 113.14062 252.75586 L 112.82031 252.62891 A 19.387139 19.387139 0 0 1 112.59375 252.53711 L 112.27734 252.40625 A 19.387139 19.387139 0 0 1 112.04883 252.30859 L 111.73828 252.17773 A 19.387139 19.387139 0 0 1 111.50781 252.07617 L 111.20117 251.94141 A 19.387139 19.387139 0 0 1 110.96875 251.83594 L 110.66797 251.69726 A 19.387139 19.387139 0 0 1 110.43359 251.58789 L 110.13867 251.44726 A 19.387139 19.387139 0 0 1 109.90234 251.33203 L 109.61133 251.18945 A 19.387139 19.387139 0 0 1 109.37305 251.07031 L 109.08789 250.92578 A 19.387139 19.387139 0 0 1 108.84961 250.80078 L 108.56836 250.6543 A 19.387139 19.387139 0 0 1 108.32812 250.52539 L 108.05273 250.375 A 19.387139 19.387139 0 0 1 107.81055 250.24023 L 107.53906 250.08789 A 19.387139 19.387139 0 0 1 107.29883 249.94922 L 107.03125 249.79297 A 19.387139 19.387139 0 0 1 106.78906 249.65039 L 106.52734 249.49219 A 19.387139 19.387139 0 0 1 106.28516 249.34375 L 106.02734 249.18359 A 19.387139 19.387139 0 0 1 105.78516 249.03125 L 105.5332 248.86719 A 19.387139 19.387139 0 0 1 105.29102 248.70898 L 105.04297 248.54492 A 19.387139 19.387139 0 0 1 104.80078 248.38086 L 104.55664 248.21484 A 19.387139 19.387139 0 0 1 104.31641 248.04492 L 104.07617 247.87695 A 19.387139 19.387139 0 0 1 103.83594 247.70312 L 103.60156 247.53125 A 19.387139 19.387139 0 0 1 103.36133 247.35351 L 103.13086 247.17773 A 19.387139 19.387139 0 0 1 103.04167 247.11068 A 38.870986 38.870986 0 0 0 103.04883 247.14648 L 103.19141 247.83984 A 38.870986 38.870986 0 0 0 103.30273 248.36914 L 103.45117 249.05664 A 38.870986 38.870986 0 0 0 103.57227 249.59375 L 103.73242 250.27539 A 38.870986 38.870986 0 0 0 103.79687 250.55078 C 104.70208 254.31712 105.90015 258.22107 107.50391 262.19922 A 38.870986 38.870986 0 0 0 107.50586 262.20573 C 108.24036 264.02675 109.06727 265.87925 110.00391 267.7526 A 38.8671 38.8671 0 0 0 162.14844 285.13542 A 38.8671 38.8671 0 0 0 183.53646 247.61523 A 19.387139 19.387139 0 0 1 183.50781 247.63281 L 183.25 247.79297 A 19.387139 19.387139 0 0 1 183.00781 247.94141 L 182.74609 248.09961 A 19.387139 19.387139 0 0 1 182.50391 248.24219 L 182.23828 248.39844 A 19.387139 19.387139 0 0 1 181.99609 248.53711 L 181.72461 248.68945 A 19.387139 19.387139 0 0 1 181.48437 248.82422 L 181.20703 248.97461 A 19.387139 19.387139 0 0 1 180.96875 249.10351 L 180.6875 249.25 A 19.387139 19.387139 0 0 1 180.44726 249.375 L 180.16211 249.51953 A 19.387139 19.387139 0 0 1 179.92383 249.63867 L 179.63476 249.78125 A 19.387139 19.387139 0 0 1 179.39844 249.89648 L 179.10156 250.03711 A 19.387139 19.387139 0 0 1 178.86719 250.14648 L 178.56641 250.28516 A 19.387139 19.387139 0 0 1 178.33398 250.39062 L 178.0293 250.52539 A 19.387139 19.387139 0 0 1 177.79687 250.625 L 177.48633 250.75781 A 19.387139 19.387139 0 0 1 177.25781 250.85612 L 176.94336 250.98502 A 19.387139 19.387139 0 0 1 176.71484 251.07812 L 176.39453 251.20508 A 19.387139 19.387139 0 0 1 176.16992 251.29297 L 175.84375 251.41797 A 19.387139 19.387139 0 0 1 175.62109 251.50195 L 175.29101 251.625 A 19.387139 19.387139 0 0 1 175.07031 251.70573 L 174.73437 251.82487 A 19.387139 19.387139 0 0 1 174.51562 251.90104 L 174.17383 252.01823 A 19.387139 19.387139 0 0 1 173.95898 252.09049 L 173.61328 252.20377 A 19.387139 19.387139 0 0 1 173.40039 252.27213 L 173.04883 252.38346 A 19.387139 19.387139 0 0 1 172.83789 252.44987 L 172.48047 252.55924 A 19.387139 19.387139 0 0 1 172.27344 252.61979 L 171.91016 252.72526 A 19.387139 19.387139 0 0 1 171.70508 252.78581 L 171.33789 252.88737 A 19.387139 19.387139 0 0 1 171.13476 252.94336 L 170.76172 253.04297 A 19.387139 19.387139 0 0 1 170.5625 253.0957 L 170.18359 253.19336 A 19.387139 19.387139 0 0 1 169.98633 253.24219 L 169.60351 253.33789 A 19.387139 19.387139 0 0 1 169.4082 253.38281 L 169.01953 253.47461 A 19.387139 19.387139 0 0 1 168.82812 253.51953 L 168.43359 253.60742 A 19.387139 19.387139 0 0 1 168.24414 253.64844 L 167.84375 253.73437 A 19.387139 19.387139 0 0 1 167.6582 253.77344 L 167.25195 253.85742 A 19.385201 19.385201 0 0 1 144.99154 241.00716 z " /></g><path
       style="display:inline;fill:none;fill-opacity:0.686275;stroke:#006aff;stroke-width:36.0654;stroke-linecap:round;stroke-linejoin:round;stroke-dasharray:865.575, 36.0654;stroke-dashoffset:0;stroke-opacity:1;paint-order:normal"
       d="m 107.54842,210.04957 c -0.7036,12.00437 1.05779,22.73374 17.31143,25.96712"
       id="path13-6-7"
       sodipodi:nodetypes="cc" /><path
       style="display:inline;fill:none;fill-opacity:0.686275;stroke:#006aff;stroke-width:36.0654;stroke-linecap:round;stroke-linejoin:round;stroke-dasharray:865.575, 36.0654;stroke-dashoffset:0;stroke-opacity:1;paint-order:normal"
       d="m 181.98753,208.49876 c 0.7036,12.00436 -1.05779,22.73374 -17.31142,25.96711"
       id="path13-6-7-4"
       sodipodi:nodetypes="cc" /></g></svg>
