<?xml version="1.0" encoding="UTF-8" standalone="no"?>
<!-- Created with Inkscape (http://www.inkscape.org/) -->

<svg
   width="400"
   height="400"
   viewBox="0 0 400 400"
   version="1.1"
   id="svg1"
   inkscape:version="1.4.3 (0d15f75042, 2025-12-25)"
   sodipodi:docname="pix.svg"
   xml:space="preserve"
   inkscape:export-filename="pix.png"
   inkscape:export-xdpi="96"
   inkscape:export-ydpi="96"
   xmlns:inkscape="http://www.inkscape.org/namespaces/inkscape"
   xmlns:sodipodi="http://sodipodi.sourceforge.net/DTD/sodipodi-0.dtd"
   xmlns="http://www.w3.org/2000/svg"
   xmlns:svg="http://www.w3.org/2000/svg"><sodipodi:namedview
     id="namedview1"
     pagecolor="#ffffff"
     bordercolor="#000000"
     borderopacity="0.25"
     inkscape:showpageshadow="2"
     inkscape:pageopacity="0.0"
     inkscape:pagecheckerboard="0"
     inkscape:deskcolor="#d1d1d1"
     inkscape:document-units="px"
     showgrid="true"
     inkscape:zoom="1.4307099"
     inkscape:cx="110.08521"
     inkscape:cy="241.83799"
     inkscape:window-width="1920"
     inkscape:window-height="1011"
     inkscape:window-x="0"
     inkscape:window-y="0"
     inkscape:window-maximized="1"
     inkscape:current-layer="layer1"><inkscape:grid
       id="grid1"
       units="px"
       originx="0"
       originy="0"
       spacingx="1"
       spacingy="1"
       empcolor="#0099e5"
       empopacity="0.45882353"
       color="#e50000"
       opacity="0"
       empspacing="8"
       enabled="true"
       visible="true" /></sodipodi:namedview><defs
     id="defs1" /><g
     inkscape:label="Layer 1"
     inkscape:groupmode="layer"
     id="layer1"><rect
       style="fill:#ffffff;stroke:none;stroke-width:527.629;stroke-linecap:round;stroke-linejoin:round;stroke-dasharray:12663.1, 527.629;fill-opacity:1"
       id="rect1"
       width="274.36655"
       height="274.36655"
       x="145.65944"
       y="-137.18327"
       transform="rotate(45)"
       rx="59.921371"
       ry="59.921371" /><g
       id="g1"
       transform="matrix(3.7795276,0,0,3.7795276,51.619512,29.904133)"><path
         d="m 61.23338,65.811381 c -3.08045,0 -5.97782,-1.19944 -8.15622,-3.37679 L 41.30038,50.657461 c -0.82691,-0.82903 -2.26801,-0.82656 -3.09456,0 L 26.386,62.477631 c -2.17841,2.17734 -5.07577,3.37679 -8.15623,3.37679 h -2.32092 l 14.9158,14.915444 c 4.65807,4.65808 12.21069,4.65808 16.86912,0 L 62.6519,65.811381 Z"
         style="fill:#32bcad;fill-opacity:1;fill-rule:nonzero;stroke:none;stroke-width:0.352778"
         id="path2376" /><path
         d="m 18.22963,24.154501 c 3.08046,0 5.97782,1.19944 8.15622,3.37679 l 11.81982,11.82193 c 0.85125,0.85161 2.2412,0.85479 3.09457,-10e-4 l 11.77678,-11.77784 c 2.1784,-2.17735 5.07576,-3.37679 8.15622,-3.37679 h 1.41852 L 47.69398,9.239461 c -4.65878,-4.658432 -12.2114,-4.658432 -16.86948,0 l -14.91509,14.91509 z"
         style="fill:#32bcad;fill-opacity:1;fill-rule:nonzero;stroke:none;stroke-width:0.352778"
         id="path2380" /><path
         d="m 75.02445,36.569951 -9.03922,-9.03922 c -0.19897,0.0797 -0.41452,0.12946 -0.64206,0.12946 h -4.10986 c -2.12478,0 -4.20476,0.86184 -5.70618,2.36432 L 43.7507,41.801291 c -1.10207,1.10208 -2.55022,1.65347 -3.99697,1.65347 -1.44815,0 -2.89524,-0.55139 -3.99697,-1.65241 L 23.93588,29.981471 c -1.50142,-1.50283 -3.5814,-2.36431 -5.70618,-2.36431 h -5.05354 c -0.21555,0 -0.41698,-0.0508 -0.60713,-0.12242 l -9.07521,9.07521 c -4.65843,4.65843 -4.65843,12.2107 0,16.86913 l 9.07486,9.07485 c 0.1905,-0.0716 0.39193,-0.12241 0.60748,-0.12241 h 5.05354 c 2.12478,0 4.20476,-0.86148 5.70618,-2.36396 L 35.7557,48.207741 c 2.13643,-2.13466 5.8607,-2.13537 7.995,0.001 l 11.77643,11.77573 c 1.50142,1.50248 3.5814,2.36431 5.70618,2.36431 h 4.10986 c 0.22754,0 0.44309,0.0497 0.64206,0.12947 l 9.03922,-9.03922 c 4.65808,-4.65843 4.65808,-12.2107 0,-16.86913"
         style="fill:#32bcad;fill-opacity:1;fill-rule:nonzero;stroke:none;stroke-width:0.352778"
         id="path2384" /></g></g><inkscape:templateinfo><inkscape:name>default</inkscape:name><inkscape:date>2024-11-24</inkscape:date></inkscape:templateinfo></svg>
